<?xml version="1.0" standalone="no"?>
<!DOCTYPE svg PUBLIC "-//W3C//DTD SVG 20010904//EN"
 "http://www.w3.org/TR/2001/REC-SVG-20010904/DTD/svg10.dtd">
<svg version="1.0" xmlns="http://www.w3.org/2000/svg"
 width="144.000000pt" height="144.000000pt" viewBox="0 0 144.000000 144.000000"
 preserveAspectRatio="xMidYMid meet">
<metadata>
Created by potrace 1.11, written by Peter Selinger 2001-2013
</metadata>
<g transform="translate(0.000000,144.000000) scale(0.100000,-0.100000)"
fill="#000000" stroke="none">
<path d="M608 1133 c-253 -254 -267 -274 -268 -384 0 -111 56 -196 159 -242
68 -30 182 -21 247 20 40 24 57 29 90 26 74 -8 128 60 104 132 -14 43 -49 65
-100 65 -33 0 -48 -6 -72 -31 -29 -28 -30 -34 -25 -85 l6 -56 -52 -24 c-82
-38 -163 -28 -231 27 -69 58 -96 171 -61 257 10 24 95 116 242 264 196 196
225 229 214 242 -8 9 -16 16 -20 16 -3 0 -108 -102 -233 -227z m283 -406 c47
-36 51 -97 10 -138 -47 -46 -106 -37 -137 22 -30 59 11 129 75 129 20 0 43 -6
52 -13z"/>
<path d="M796 691 c-10 -11 -16 -29 -13 -43 l4 -23 2 24 c0 14 8 33 18 43 9
10 14 18 11 18 -3 0 -13 -9 -22 -19z"/>
<path d="M881 617 c-13 -21 -12 -21 5 -5 10 10 16 20 13 22 -3 3 -11 -5 -18
-17z"/>
<path d="M798 976 c-21 -8 -49 -21 -63 -30 -15 -10 -36 -14 -52 -11 -24 5 -25
4 -7 -4 54 -24 72 -108 34 -149 -12 -12 -26 -22 -32 -22 -6 0 -9 -3 -6 -6 11
-11 48 16 63 47 10 19 14 41 10 63 -6 30 -3 36 27 57 28 20 45 24 110 24 68 0
81 -3 120 -30 53 -37 98 -120 98 -179 0 -97 -6 -105 -263 -364 -193 -193 -239
-245 -227 -252 8 -5 18 -9 22 -7 4 1 111 105 238 232 258 257 275 281 275 385
0 53 -6 75 -30 118 -64 116 -198 170 -317 128z"/>
<path d="M569 911 c-38 -39 -39 -87 -3 -130 14 -17 30 -31 36 -31 6 0 -1 9
-14 20 -48 37 -42 126 11 155 14 8 20 14 13 15 -8 0 -27 -13 -43 -29z"/>
<path d="M582 840 c0 -14 2 -19 5 -12 2 6 2 18 0 25 -3 6 -5 1 -5 -13z"/>
<path d="M638 743 c7 -3 16 -2 19 1 4 3 -2 6 -13 5 -11 0 -14 -3 -6 -6z"/>
</g>
</svg>
